<svg xmlns="http://www.w3.org/2000/svg" viewBox="0 0 488 500.63"><defs><style>.cls-1{isolation:isolate;}.cls-2,.cls-30{fill:#c80100;}.cls-22,.cls-25,.cls-3{fill:#a7cfd2;}.cls-3{opacity:0.3;}.cls-12,.cls-13,.cls-4{fill:none;}.cls-5,.cls-6,.cls-7,.cls-8{fill:#935c45;}.cls-10,.cls-12,.cls-13,.cls-15,.cls-17,.cls-20,.cls-21,.cls-29,.cls-6,.cls-8{mix-blend-mode:multiply;}.cls-6,.cls-7{opacity:0.16;}.cls-11,.cls-23,.cls-27,.cls-28,.cls-7{mix-blend-mode:screen;}.cls-8{opacity:0.28;}.cls-11,.cls-9{fill:#ffb98d;}.cls-10,.cls-20{opacity:0.14;}.cls-11{opacity:0.17;}.cls-12{opacity:0.59;}.cls-13{opacity:0.35;}.cls-14,.cls-15,.cls-17{fill:#99634d;}.cls-15{opacity:0.39;}.cls-16{fill:#95604b;}.cls-17{opacity:0.29;}.cls-18{fill:#955e47;}.cls-19,.cls-21{fill:#ffefee;}.cls-20{fill:#749092;}.cls-22{opacity:0.76;}.cls-23{fill:#dcf3f5;}.cls-23,.cls-29{opacity:0.21;}.cls-24{opacity:0.61;}.cls-26,.cls-27,.cls-28{fill:#fff;}.cls-27{opacity:0.47;}.cls-28{opacity:0.18;}.cls-29{fill:#a3b5b7;}.cls-30{font-size:61.3px;font-family:Bebas-Regular, Bebas Regular;}</style></defs><g class="cls-1"><g id="Layer_2" data-name="Layer 2"><g id="Layer_1-2" data-name="Layer 1"><path class="cls-2" d="M175,434.67a219.38,219.38,0,0,1-37.49-36.75c-16.58-20.77-35.25-53.05-30-88.94,3.56-24.46,16.08-40.5,35.27-45.17,21.32-5.19,45.13,5.09,53.15,17.57a44,44,0,0,1,7.18,21.46c11.13-10.5,25.21-24.57,25.57-42.48l2,.05c-.4,19.49-15.92,34.3-27.49,45.17-.15,7.63-2.63,13.56-5.44,15.94a4.28,4.28,0,0,1-6.56-.54,3.69,3.69,0,0,1-.91-2.7c.18-3.47,4.67-7.74,10.93-13.62a41.44,41.44,0,0,0-6.85-22.09c-7.67-11.93-30.54-21.73-51.1-16.72-13,3.16-29.39,13.26-33.78,43.45-5.11,35.1,13.27,66.83,29.58,87.26A217.6,217.6,0,0,0,176.14,433Zm26.05-127.14c-4.85,4.58-8.77,8.49-8.89,10.87a1.57,1.57,0,0,0,.4,1.18,2.47,2.47,0,0,0,3.91.3C198.7,318,200.64,313.48,201.09,307.53Z"/><path class="cls-3" d="M174.49,435.54A221.72,221.72,0,0,1,136.8,398.6c-16.71-20.93-35.53-53.5-30.25-89.78,3.63-24.91,16.42-41.25,36-46a50.72,50.72,0,0,1,12-1.4c16.93,0,35.06,8.34,42.18,19.4a45.83,45.83,0,0,1,7.18,19.89c11.59-11.07,23.46-24.17,23.78-40.34l0-1,3.9.09,0,1.05c-.4,20-16.58,35.38-27.5,45.64-.23,7.11-2.48,13.46-5.79,16.27a5.9,5.9,0,0,1-3.72,1.51,5.5,5.5,0,0,1-4.18-2.16,4.91,4.91,0,0,1-1.16-3.47c.2-3.88,4.68-8.16,10.93-14a40.43,40.43,0,0,0-6.67-21c-6.46-10-23.16-17.61-38.86-17.61a47.63,47.63,0,0,0-11.23,1.32c-12.69,3.09-28.72,13-33,42.59-5.06,34.71,13.17,66.16,29.36,86.43a214.88,214.88,0,0,0,36.91,36.19l.81.59-2.2,3.46Zm25.3-125.38c-3,2.9-6.52,6.54-6.62,8.3a.51.51,0,0,0,.16.42,1.79,1.79,0,0,0,1.29.78,2.08,2.08,0,0,0,1.28-.6C197.3,317.88,199,314.91,199.79,310.16Z"/><path class="cls-4" d="M306.46,280.78c-23.46-5.57-32.58-9.06-31.93-25.08"/><path class="cls-2" d="M306.25,281.8c-22.58-5.37-33.4-8.72-32.69-26.14l1.95.09c-.61,15.1,7.58,18.41,31.16,24Z"/><path class="cls-5" d="M228.86,414.58s11,6.51,36.56,8.37c0,0,49.61,29.46,65.57,41.87a226,226,0,0,0,33.36,21.09H474.88l9.78-12.71s-73.52-40.94-112.39-59.55a734.21,734.21,0,0,1-65.65-35.36Z"/><path class="cls-6" d="M375.61,420.92A734.57,734.57,0,0,1,310,385.57l-9,4.19c3.79,2.34,29.32,17.89,65.15,35,38.87,18.61,72.49,64.83,72.49,64.83l33.1,3.56h6.51L488,480.47S414.49,439.53,375.61,420.92Z"/><path class="cls-7" d="M385.55,489.61a227.34,227.34,0,0,1-33.37-21.09c-15.95-12.41-67.64-40.62-67.64-40.62-25.53-1.86-34.48-9.63-34.48-9.63l64.32-30c-2.87-1.72-4.42-2.69-4.42-2.69l-77.75,36.28s11,6.52,36.55,8.38c0,0,49.61,29.46,65.57,41.87a227.54,227.54,0,0,0,33.36,21.09H478.23l2.75-3.58Z"/><path class="cls-8" d="M310,385.57l-77.68,33s7.9,6.78,30.87,8.95c20.57.53,38.37-7,50-16.91,6.2-5.27,8.18-12.22,8.58-18C314.21,388.22,310,385.57,310,385.57Z"/><path class="cls-9" d="M141.72,484.5s45.45-34.25,66.56-47,18.71-14.19,42.43-11.17,41.56-7.91,54.4-18.84,7.61-29.08,7.61-29.08a30.64,30.64,0,0,1,5.66-7.67c3.92-4,1.52-19.77-5-24.66,0,0,8.71-10.93,7.18-15.82s-6.74-11.86-20.67-8.6-22.19.7-36.12-3a53.66,53.66,0,0,0-26.76.24s-32.05,41.93-62.88,63C140,405.24,89.5,437.37,72.53,448.07S0,487.68,0,487.68l30.08-5.8Z"/><g class="cls-10"><path class="cls-9" d="M322.19,374.22c-.17-.26-.35-.52-.51-.78-.2,5.93-2,13.27-8.35,18.87-12.67,11.15-30.34,22.39-54.1,19.77S237.88,410.82,217,424c-18.09,11.38-80.69,47.22-97.25,56.69l30.91.72s45.46-34.25,66.56-47,18.72-14.19,42.43-11.17,41.56-7.91,54.4-18.84,7.62-29.07,7.62-29.07S321.82,374.87,322.19,374.22Z"/></g><path class="cls-11" d="M52.59,500.63c16.69-9.37,55.14-54,64.69-60.37,16.13-10.76,35.11-33.2,67.58-56.69,27.58-20,56.17-58.44,59.46-62.92a44.33,44.33,0,0,0-6.53,1.29s-30.79,40.3-60.42,60.57C144.55,405,96.06,435.86,79.75,446.14s-69.7,38.06-69.7,38.06L39,478.63Z"/><path class="cls-12" d="M320.11,348a14.07,14.07,0,0,1,2.18-5.12"/><path class="cls-12" d="M321.64,375.26a30,30,0,0,0-2.61,4.41"/><path class="cls-13" d="M276.89,429.61s-6.1.62-8.13.62"/><path class="cls-14" d="M187,376.65s-8.27-13.49-2.83-20.93S200,352,207,354.09s20.67,6.28,18.49,13.72-3.91,10.24-10.88,9.77-21.39-4.88-21.39-4.88S188.26,376.26,187,376.65Z"/><path class="cls-13" d="M187.38,370.37s1.31,1.09,5.81,2.33"/><path class="cls-15" d="M221.33,363.55s-8.26-4.43-11.75.62c-2.47,3.56-.44,8.06,8.85,8.06A32.06,32.06,0,0,0,221.33,363.55Z"/><path class="cls-16" d="M221.47,314.86s-.43-10.24,4.07-14.12,8.84-4.65,16.39-1.39,22.77,12.09,25.53,14.89c0,0-9.29-.31-12.62.31,0,0,5.51,5.73,10.44,11.47s7.54,12.87,1.16,18.76S221.47,314.86,221.47,314.86Z"/><path class="cls-17" d="M267.53,343.55c-7.94-5.72-16.64-11.11-25.47-18.22S227.49,314,223.29,314.55l-1.42.18c0,.35,0,.56,0,.56s37.49,36,43.87,30.11C266.22,345,267.69,343.67,267.53,343.55Z"/><path class="cls-15" d="M267.17,334s-5.17-7.15-10-3.74-2.13,9.92,4.41,12.69A9.71,9.71,0,0,0,267.17,334Z"/><path class="cls-5" d="M210.59,333.93s-3.19-6.67,0-13,7.26-6.35,11.46-6.82,9.87,3.88,18.57,11.17S258,338.13,265.86,344c8.29,6.22,5.82,14.31,2.9,18.58s-9.86,5.61-13.49,2.35S210.59,333.93,210.59,333.93Z"/><path class="cls-15" d="M267.17,352.85s-4.21-3.41-8.42-3.72-11.46,8.06-1,16.28C257.74,365.41,265.86,365.56,267.17,352.85Z"/><path class="cls-13" d="M212,326.8a8.6,8.6,0,0,1,3.05-5.74"/><path class="cls-13" d="M240.33,347.27s.73-4,3.34-5"/><path class="cls-13" d="M242.22,350.06s.72-5.28,4.2-7.14"/><path class="cls-13" d="M246.13,324.63s1.16-3.42,3.19-4"/><path class="cls-13" d="M246.71,306.33a49.77,49.77,0,0,1,8.13,8.22"/><path class="cls-14" d="M303.14,319.51a22.94,22.94,0,0,1-8.7-11.32c-2.61-7.6-9.87-18.92-17.41-15.66s-13.2,4.18-19.15,5.58-5.94,6.36-4.93,10.39,6.67,11.63,22.34,7.91C275.29,316.41,293,322.14,303.14,319.51Z"/><path class="cls-17" d="M255.82,314.41a113.51,113.51,0,0,1,11.64-.17c-1.72-1.74-8.25-5.81-14.75-9.42a13.15,13.15,0,0,0,.4,5A10.58,10.58,0,0,0,255.82,314.41Z"/><path class="cls-14" d="M303.14,323.67a23,23,0,0,1-8.7-11.32c-2.61-7.6-9.87-18.92-17.41-15.67s-13.2,4.19-19.15,5.59-5.94,6.35-4.93,10.39,6.67,11.63,22.34,7.9C275.29,320.56,293,326.3,303.14,323.67Z"/><path class="cls-13" d="M285.15,310.36a16.81,16.81,0,0,1-9.86,6.05"/><path class="cls-15" d="M257,298.42s6.39,5.89,8.27,11c0,0,7.69,0,8.12-5.89.35-4.72-4.59-6.85-6.58-7.52-2.79.74-5.42,1.28-8.09,1.89Z"/><path class="cls-13" d="M278.63,295.78a10.76,10.76,0,0,1,3.48,5.58"/><path class="cls-13" d="M282.25,295.94a6.22,6.22,0,0,1,1.6,3.56"/><path class="cls-17" d="M210,334.33l0,.06s38.48,24.51,42.11,27.77c1.94,1.74,5.93,5.14,8.63,4.53-.94-2.48-1.45-4.58-5-6.39-10.16-5.12-22.65-13.58-30.48-19.47C220.81,337.47,214.55,334.22,210,334.33Z"/><path class="cls-17" d="M207,354.09c-3.6-1.08-5.1-2.2-9.39-2.38l20.22,14.88s2.5,1.24,6.92,3.61c.24-.74.49-1.53.74-2.39C227.64,360.37,213.93,356.18,207,354.09Z"/><path class="cls-18" d="M197.54,351.76s-1.89-8.84,1.3-14.42,14.37-4.5,22.2,1.4,21,15.81,31.19,20.93,7.25,14.89,5.07,18.14-4.78,7-16.82,0-19.59-10.7-19.59-10.7Z"/><path class="cls-15" d="M255.13,367.89s-9.87-6.51-13.64-2.64,1.6,10.86,7.4,12.72A19.8,19.8,0,0,0,255.13,367.89Z"/><path class="cls-13" d="M229.31,362s.87-3.72,3.19-5.74"/><path class="cls-13" d="M232.79,361.38a19.16,19.16,0,0,1,1.88-3.42"/><path class="cls-13" d="M201,347.58a14.1,14.1,0,0,1,1.74-6.05"/><path class="cls-13" d="M199.57,343.23s1-5,3.77-6.2"/><path class="cls-4" d="M322.89,437.29s43-5.2,64.5-60.6c17.59-45.27,2.48-96.82-30-101S294,307,310.51,313.31c9.12,3.49,18.89-27.16-4.56-32.73"/><path class="cls-3" d="M387,296.12c-7.09-13-17.61-20.95-29.63-22.49a41.87,41.87,0,0,0-5.4-.34c-11.49,0-23.84,4.5-34,12.37-2.35-4.82-11.54-7.12-11.54-7.12-14.43-3.43-22.82-5.89-27-10.62-.11.11-.2.22-.31.31a8.8,8.8,0,0,1-3,1.93c5,6.12,14.51,8.87,28.23,12.16l0,.07s8.26,1.85,10.59,5.82c-5.84,5.19-9.79,11-10.89,16-1.14,5.17.95,9.31,5.58,11.08a6,6,0,0,0,2.13.4,7.47,7.47,0,0,0,5.19-2.42c3.84-3.79,6.63-12.43,4.63-20.33a18.86,18.86,0,0,0-1.39-3.84c9.39-7.41,20.84-11.64,31.55-11.64a41.14,41.14,0,0,1,5.23.33c10.94,1.4,20.18,8.47,26.72,20.45,11.31,20.69,12,51.18,1.68,77.66-20.76,53.42-62.5,59.27-62.92,59.32l-1,.12.44,4.16,1-.12c.44-.06,44.39-6,66.09-61.87C399.61,349.84,398.86,317.9,387,296.12Zm-72.77,14.07a3.91,3.91,0,0,1-2.55,1.31,2.22,2.22,0,0,1-.8-.15c-2.8-1.07-3.79-3-3.09-6.2.86-3.9,4.27-8.85,9.2-13.39a16.49,16.49,0,0,1,.75,2.25C319.31,300.39,317.18,307.25,314.19,310.19Z"/><path class="cls-19" d="M319.12,442.08l-.7-.56a8.7,8.7,0,0,1-1.54-11.64l9.54-13.57a7.45,7.45,0,0,1,10.89-1.65l.7.56a8.7,8.7,0,0,1,1.54,11.64L330,440.43A7.44,7.44,0,0,1,319.12,442.08Z"/><path class="cls-20" d="M317.67,124.55c-3-12.34-33.15-28.27-46.18-34.24l-.1,0c-.1-9.36-7.23-18.44-16-18.44s-16,7.64-16,17.05a46.52,46.52,0,0,0-9.26,4.63c-21.85,14.06-35,21-35.51,31.05s.13,31.06.13,31.06,3.45,71.81,8.94,80.42c7.69,12.08,22,11.15,22,11.15l.74,21.1s4.85,7.56,16.39.4V248.37h2.31v0h15.57v-.11h9.81v18.45s9.31,8.62,17.13,0V248.77s15,1.19,20.73-17.52S320.65,136.89,317.67,124.55ZM255.4,77.68a10.27,10.27,0,0,1,10.43,10.4,41.78,41.78,0,0,0-21.08-.78C244.87,81.25,249.68,77.68,255.4,77.68Z"/><path class="cls-21" d="M340.54,419.11a9.07,9.07,0,0,1-1.6,4.59l-9.16,13a7.74,7.74,0,0,1-11.33,1.71l-.2-.15a8.61,8.61,0,0,1-2.78-4.09,8.91,8.91,0,0,0,3.2,7.52l.2.15a7.74,7.74,0,0,0,11.32-1.71l9.17-13A9.14,9.14,0,0,0,340.54,419.11Z"/><path class="cls-22" d="M313.21,123.36c-3-12.34-33.15-28.27-46.18-34.24,0,0-19.5-10.88-41.34,3.18s-35,21-35.51,31.06.12,31.05.12,31.05,3.45,71.82,8.94,80.43c7.7,12.07,22,11.14,22,11.14l.74,21.11s4.84,7.56,16.39.39v-20.3h2.3v0h15.57v-.1H266v18.44s9.31,8.63,17.13,0V247.58s15,1.19,20.74-17.52S316.19,135.7,313.21,123.36Z"/><path class="cls-2" d="M261.69,144.86c-26.95,6.53-54.47-2.65-65.73-7.23.06,8.39.29,16.43.3,16.52.89,23.2,2.82,49.4,5,64.62,1.56,10.93,9.73,19.46,20,20.81l.44,0,5.29.44.84,23.9a4.25,4.25,0,0,0,1.42.23h0a8.81,8.81,0,0,0,3.16-.7V240.81h17.13l3.6-.13H272V262a7.45,7.45,0,0,0,3.26.92,4,4,0,0,0,2-.51V247.58l-.16-7.06,6.52.7h.14c2.46,0,10.8-.95,14.52-13.14,4.44-14.54,9-61.24,9.7-87C303.15,140,289.14,138.2,261.69,144.86Z"/><path class="cls-23" d="M307.44,125c-1.58-6.55-20.37-19.72-42.76-30l-.21-.09-.2-.11a34.11,34.11,0,0,0-15-3.3,37.53,37.53,0,0,0-20.53,6.29q-4.24,2.73-8,5.12c-14.13,9-24.33,15.43-24.6,20.81-.48,9.7.12,30.31.13,30.46.89,23.2,2.82,49.4,5,64.62,1.56,10.93,9.73,19.46,20,20.81l.44,0,5.29.44.84,23.9a4.25,4.25,0,0,0,1.42.23h0a8.81,8.81,0,0,0,3.16-.7V240.81h17.1l3.65-.13H272V262a7.45,7.45,0,0,0,3.26.92,4,4,0,0,0,2-.51V247.58l-.16-7.06,6.52.7h.14c2.46,0,10.8-.95,14.52-13.14C304,209.1,310,135.36,307.44,125Z"/><g class="cls-24"><path class="cls-25" d="M266.94,89.28l-5.56-2.2a10.28,10.28,0,0,0-10.44-10.59c-5.8,0-10.67,3.66-10.67,9.86l-5.33,1.38c0-9.43,7.18-17.1,16-17.1S266.94,79.85,266.94,89.28Z"/></g><line class="cls-13" x1="310.02" y1="418.06" x2="318.67" y2="423.72"/><line class="cls-13" x1="310.3" y1="414.48" x2="318.94" y2="420.14"/><polygon class="cls-26" points="272.16 187.56 256.67 187.56 256.67 171 244.28 171 244.28 187.56 228.8 187.56 228.8 200.8 244.28 200.8 244.28 217.35 256.67 217.35 256.67 200.8 272.16 200.8 272.16 187.56"/><path class="cls-27" d="M206.82,132.09c-3.12.63-5.79-2.61-4.8-5.83,1.09-3.55,4-8.08,11.1-11.89,14.14-7.56,29-19.49,36.08-13.52s-15.25,12.32-26,17.89C214.12,123.41,214.23,130.6,206.82,132.09Z"/><path class="cls-28" d="M230.06,224.26c5.73,1.42,5,10.38-.84,10.77-4.43.3-10,.26-13.9-1.21-7.63-2.84-6.3-14.18-9.29-23.4s-1.65-18.79,4-18.08,7.3,18.08,7,26.24C216.79,223.14,224.2,222.82,230.06,224.26Z"/><path class="cls-29" d="M288.13,113.37s16.09,5.16,13.41,40.12S299.39,224,286,233.73c0,0,9.65-59,5.36-86S288.13,113.37,288.13,113.37Z"/><text class="cls-30" transform="matrix(0.55, -0.64, 0.76, 0.65, 102.55, 131.19)">B</text><text class="cls-30" transform="translate(120.25 110.77) rotate(-42.63) scale(0.85 1)">L</text><text class="cls-30" transform="matrix(0.69, -0.49, 0.58, 0.82, 135.48, 95.94)">O</text><text class="cls-30" transform="matrix(0.77, -0.36, 0.43, 0.9, 163.21, 76.1)">O</text><text class="cls-30" transform="translate(193.93 61.48) rotate(-14.73) scale(0.85 1)">D</text><text class="cls-30" transform="translate(226.33 53.63) rotate(-7.74) scale(0.85 1)"> </text><text class="cls-30" transform="translate(236.65 52.21) rotate(-4.34) scale(0.85 1)"> </text><text class="cls-30" transform="translate(247.05 51.41) rotate(-1.1) scale(0.85 1)"> </text><text class="cls-30" transform="translate(256.87 50.44) rotate(6.02) scale(0.85 1)">D</text><text class="cls-30" transform="translate(289.49 53.66) rotate(16.8) scale(0.85 1)">O</text><text class="cls-30" transform="matrix(0.75, 0.39, -0.46, 0.89, 322.1, 63.45)">N</text><text class="cls-30" transform="translate(351.13 78.33) rotate(36.29) scale(0.85 1)">A</text><text class="cls-30" transform="matrix(0.62, 0.58, -0.68, 0.73, 372.68, 94.02)">T</text><text class="cls-30" transform="matrix(0.55, 0.64, -0.76, 0.65, 390.87, 110.79)">E</text></g></g></g></svg>